<svg xmlns="http://www.w3.org/2000/svg" width="184" height="116" viewBox="0 0 184 116">
  <path fill-rule="evenodd" d="M18.788,88.8 L0.068,88.8 L0.068,94.344 L6.548,94.344 L6.548,114 L12.308,114 L12.308,94.344 L18.788,94.344 L18.788,88.8 Z M31.676,95.496 C29.3,95.496 27.5,96.36 26.528,97.692 L26.528,88.8 L21.128,88.8 L21.128,114 L26.528,114 L26.528,104.172 C26.528,101.616 27.896,100.464 29.876,100.464 C31.604,100.464 33.008,101.508 33.008,103.74 L33.008,114 L38.408,114 L38.408,102.948 C38.408,98.088 35.312,95.496 31.676,95.496 Z M46.94,107.16 C47.624,109.032 49.28,109.68 51.26,109.68 C52.736,109.68 53.996,109.104 54.716,108.312 L59.036,110.796 C57.272,113.244 54.608,114.504 51.188,114.504 C45.032,114.504 41.216,110.364 41.216,105 C41.216,99.636 45.104,95.496 50.792,95.496 C56.048,95.496 59.936,99.564 59.936,105 C59.936,105.756 59.864,106.476 59.72,107.16 L46.94,107.16 Z M46.832,103.128 L54.572,103.128 C53.996,101.04 52.376,100.284 50.756,100.284 C48.704,100.284 47.336,101.292 46.832,103.128 Z M72.176,88.8 L72.176,114 L77.936,114 L77.936,88.8 L72.176,88.8 Z M92.624,95.496 C90.248,95.496 88.448,96.36 87.476,97.692 L87.476,96 L82.076,96 L82.076,114 L87.476,114 L87.476,104.172 C87.476,101.616 88.844,100.464 90.824,100.464 C92.552,100.464 93.956,101.508 93.956,103.74 L93.956,114 L99.356,114 L99.356,102.948 C99.356,98.088 96.26,95.496 92.624,95.496 Z M113.612,95.496 C111.236,95.496 109.436,96.36 108.464,97.692 L108.464,96 L103.064,96 L103.064,114 L108.464,114 L108.464,104.172 C108.464,101.616 109.832,100.464 111.812,100.464 C113.54,100.464 114.944,101.508 114.944,103.74 L114.944,114 L120.344,114 L120.344,102.948 C120.344,98.088 117.248,95.496 113.612,95.496 Z M139.856,100.932 C141.728,102.12 142.952,104.064 142.952,106.62 C142.952,111.084 139.316,114 134.816,114 L124.232,114 L124.232,88.8 L134.096,88.8 C138.488,88.8 142.052,91.644 142.052,96 C142.052,98.088 141.224,99.744 139.856,100.932 Z M134.096,94.2 L129.992,94.2 L129.992,98.664 L134.096,98.664 C135.392,98.664 136.292,97.728 136.292,96.432 C136.292,95.136 135.428,94.2 134.096,94.2 Z M134.816,108.6 C136.256,108.6 137.192,107.592 137.192,106.188 C137.192,104.784 136.256,103.776 134.816,103.776 L129.992,103.776 L129.992,108.6 L134.816,108.6 Z M154.592,114.504 C149.3,114.504 145.052,110.364 145.052,105 C145.052,99.636 149.3,95.496 154.592,95.496 C159.884,95.496 164.132,99.636 164.132,105 C164.132,110.364 159.884,114.504 154.592,114.504 Z M154.592,109.248 C156.932,109.248 158.732,107.556 158.732,105 C158.732,102.444 156.932,100.752 154.592,100.752 C152.252,100.752 150.452,102.444 150.452,105 C150.452,107.556 152.252,109.248 154.592,109.248 Z M104,45 L118,45 L118,51 L104,51 L104,58 L118,58 L118,6 L86,6 L86,32 L80,32 L80,6 L66,6 L66,58 L98,58 L98,35.5 L98,32 L118,32 L118,38 L104,38 L104,45 Z M183.292,114 L177.1,114 L173.752,109.248 L170.404,114 L164.212,114 L170.656,104.856 L164.428,96 L170.62,96 L173.752,100.464 L176.884,96 L183.076,96 L176.848,104.856 L183.292,114 Z M60,0 L124,0 L124,64 L60,64 L60,0 Z"/>
</svg>
