<svg height="116" viewBox="0 0 184 116" width="184" xmlns="http://www.w3.org/2000/svg"><path d="m18.788 88.8h-18.72v5.544h6.48v19.656h5.76v-19.656h6.48zm12.888 6.696c-2.376 0-4.176.864-5.148 2.196v-8.892h-5.4v25.2h5.4v-9.828c0-2.556 1.368-3.708 3.348-3.708 1.728 0 3.132 1.044 3.132 3.276v10.26h5.4v-11.052c0-4.86-3.096-7.452-6.732-7.452zm15.264 11.664c.684 1.872 2.34 2.52 4.32 2.52 1.476 0 2.736-.576 3.456-1.368l4.32 2.484c-1.764 2.448-4.428 3.708-7.848 3.708-6.156 0-9.972-4.14-9.972-9.504s3.888-9.504 9.576-9.504c5.256 0 9.144 4.068 9.144 9.504 0 .756-.072 1.476-.216 2.16zm-.108-4.032h7.74c-.576-2.088-2.196-2.844-3.816-2.844-2.052 0-3.42 1.008-3.924 2.844zm25.344-14.328v25.2h5.76v-25.2zm20.448 6.696c-2.376 0-4.176.864-5.148 2.196v-1.692h-5.4v18h5.4v-9.828c0-2.556 1.368-3.708 3.348-3.708 1.728 0 3.132 1.044 3.132 3.276v10.26h5.4v-11.052c0-4.86-3.096-7.452-6.732-7.452zm20.988 0c-2.376 0-4.176.864-5.148 2.196v-1.692h-5.4v18h5.4v-9.828c0-2.556 1.368-3.708 3.348-3.708 1.728 0 3.132 1.044 3.132 3.276v10.26h5.4v-11.052c0-4.86-3.096-7.452-6.732-7.452zm26.244 5.436c1.872 1.188 3.096 3.132 3.096 5.688 0 4.464-3.636 7.38-8.136 7.38h-10.584v-25.2h9.864c4.392 0 7.956 2.844 7.956 7.2 0 2.088-.828 3.744-2.196 4.932zm-5.76-6.732h-4.104v4.464h4.104c1.296 0 2.196-.936 2.196-2.232s-.864-2.232-2.196-2.232zm.72 14.4c1.44 0 2.376-1.008 2.376-2.412s-.936-2.412-2.376-2.412h-4.824v4.824zm19.776 5.904c-5.292 0-9.54-4.14-9.54-9.504s4.248-9.504 9.54-9.504 9.54 4.14 9.54 9.504-4.248 9.504-9.54 9.504zm0-5.256c2.34 0 4.14-1.692 4.14-4.248s-1.8-4.248-4.14-4.248-4.14 1.692-4.14 4.248 1.8 4.248 4.14 4.248zm-50.592-64.248h14v6h-14v7h14v-52h-32v26h-6v-26h-14v52h32v-22.5-3.5h20v6h-14zm79.292 69h-6.192l-3.348-4.752-3.348 4.752h-6.192l6.444-9.144-6.228-8.856h6.192l3.132 4.464 3.132-4.464h6.192l-6.228 8.856zm-123.292-114h64v64h-64z" fill-rule="evenodd"/></svg>